<svg xmlns="http://www.w3.org/2000/svg" version="1.1" xmlns:xlink="http://www.w3.org/1999/xlink" xmlns:svgjs="http://svgjs.dev/svgjs" width="100%" height="100%" viewBox="0 0 1000 600"><rect width="1000" height="600" x="0" y="0" fill="#f5f5f5"/><g><rect width="333.3333333333333" height="333.3333333333333" rx="13.333333333333334" ry="13.333333333333334" y="196.62916401487212" fill="#009688" transform="matrix(0.7167146751179272,0,0,0.7167146751179274,0,39.62056547627387)" x="174.40695190429685"/><path d="M271.57976908885496 319.64837106504126Q279.2235758863434 310.8644710503004 288.00747590108415 310.8644710503004Q296.7654647063421 310.8644710503004 298.44969332273774 324.31238877198325L298.44969332273774 324.31238877198325L298.44969332273774 324.85652417112647Q298.44969332273774 331.5675274272264 290.80588652524943 354.16210209641235L290.80588652524943 354.16210209641235L299.56387533050724 352.29649501363554Q315.6029140004913 352.29649501363554 318.21994615827543 372.81817292418054L318.21994615827543 372.81817292418054L318.21994615827543 375.6165835483457Q318.21994615827543 400.23223255720654 287.25605082607683 420.5725320013705L287.25605082607683 420.5725320013705Q277.1765903371854 424.4851246333052 272.69395109662446 424.4851246333052L272.69395109662446 424.4851246333052Q257.5877159680289 424.4851246333052 251.80951625331733 406.9432358133065L251.80951625331733 406.9432358133065Q252.17227318607948 404.89625026414853 256.4735339602594 401.1650360985949L256.4735339602594 401.1650360985949Q258.5205195094172 316.849960440876 260.023369659432 316.849960440876L260.023369659432 316.849960440876Q263.18453721635933 313.66288167446567 265.80156937414347 313.66288167446567L265.80156937414347 313.66288167446567Q270.82834401384764 315.5284887572425 270.82834401384764 319.64837106504126L270.82834401384764 319.64837106504126L271.57976908885496 319.64837106504126ZM269.71416200607814 370.9525658414037L269.71416200607814 370.9525658414037L270.46558708108546 370.9525658414037Q285.7532006760622 342.0356560583631 286.68600421745066 326.17799585476007L286.68600421745066 326.17799585476007L286.68600421745066 321.87673508058026L284.82039713467384 321.87673508058026Q280.90780450273905 321.87673508058026 274.37817971302024 342.96845959975144L274.37817971302024 342.96845959975144Q269.71416200607814 362.92009090167016 269.71416200607814 370.9525658414037ZM276.81383340442324 382.5089652708268L276.81383340442324 382.5089652708268L274.01542278025806 383.6231472785963L269.3514050733161 383.26039034583414L269.3514050733161 383.6231472785963L268.59997999830864 386.0588009699993L268.59997999830864 405.4662968727748L268.02993338968247 412.3586785952558L272.14981569748124 413.4728606030253Q288.00747590108415 413.4728606030253 303.47646796244203 389.6086366691719L303.47646796244203 389.6086366691719Q307.77772873662184 378.9591295716542 307.77772873662184 372.0667478491732L307.77772873662184 372.0667478491732Q307.77772873662184 363.49013751029645 299.56387533050724 363.49013751029645L299.56387533050724 363.49013751029645L298.8124502554999 363.49013751029645Q289.87308298386097 363.49013751029645 276.81383340442324 382.5089652708268ZM379.4222229571483 288.2958075905975L379.4222229571483 288.2958075905975L379.9663583562915 288.2958075905975Q384.6303760632335 290.73146128200057 384.6303760632335 293.71125037254683L384.6303760632335 293.71125037254683L379.9663583562915 329.1577849453064Q379.9663583562915 348.5652808480819 391.54866899519754 409.56026797109064L391.54866899519754 409.56026797109064L400.87670440908164 432.8803565058008Q400.87670440908164 435.3160101972039 396.96411177714697 438.29579928775024L396.96411177714697 438.29579928775024L393.41427607797436 438.29579928775024Q389.6830619124207 437.18161727998074 382.22063358131345 415.33846768580213L382.22063358131345 415.33846768580213Q377.3752374079903 397.79657886580344 372.5039300251842 361.2358622852745L372.5039300251842 361.2358622852745L371.3897480174147 361.2358622852745Q360.58477366299894 393.33985083472555 356.102134422438 394.45403284249494L356.102134422438 394.45403284249494L353.12234533189167 395.2054579175024Q349.18384149047404 395.2054579175024 343.40564177576243 379.8919331130427L343.40564177576243 379.8919331130427L342.1100813016119 379.8919331130427Q339.85580607658994 425.9879747833198 333.326181286871 425.9879747833198L333.326181286871 425.9879747833198L332.7820458877278 425.9879747833198Q326.7965564971522 425.9879747833198 326.252421098009 416.65993936943573L326.252421098009 416.65993936943573Q330.916438804951 398.7293824071919 330.916438804951 379.34779771389935L330.916438804951 379.34779771389935L325.86375295576374 329.9092100203137L325.86375295576374 326.3593743211412Q325.86375295576374 319.2597029227961 330.916438804951 319.2597029227961L330.916438804951 319.2597029227961Q338.1974886696772 319.2597029227961 343.7943099180077 347.8138557730746L343.7943099180077 347.8138557730746Q351.9822521146392 373.7509764655689 353.847859197416 375.79796201472686L353.847859197416 375.79796201472686Q358.14911997159595 369.0869587586269 362.45038074577576 351.9078268713904L362.45038074577576 351.9078268713904Q365.79292676908426 343.1498380661325 368.9800055354947 324.4937672383644L368.9800055354947 324.4937672383644L368.22858046048736 323.9237206297381L368.9800055354947 320.9439315391918L368.9800055354947 319.8297495314223Q370.6383229424074 288.2958075905975 379.4222229571483 288.2958075905975ZM415.62018260491504 321.1253100055728L415.62018260491504 321.1253100055728Q420.07691063599304 321.1253100055728 421.39838231962665 325.78932771251493L421.39838231962665 325.78932771251493L420.28420031185715 336.8015917427947L420.28420031185715 340.3514274419673Q424.94821801879914 378.9591295716542 426.06240002656864 400.4136110235876L426.06240002656864 400.4136110235876Q428.1093855757266 420.39115353498937 430.3377495912656 420.39115353498937L430.3377495912656 420.39115353498937Q430.3377495912656 424.30374616692404 423.8081248015467 425.41792817469354L423.8081248015467 425.41792817469354Q414.4800893876626 425.41792817469354 414.4800893876626 387.7430295863951L414.4800893876626 387.7430295863951L409.27193628157727 339.2372454341978L409.27193628157727 337.55301681780213Q409.27193628157727 321.1253100055728 415.62018260491504 321.1253100055728Z " fill="#333333" transform="matrix(0.7167146751179272,0,0,0.7167146751179274,0,39.62056547627387)"/><path d="M612.089444129516 346.963700648378L612.089444129516 346.963700648378L621.0614629558036 345.65591485335983Q626.535915120996 345.65591485335983 627.2050148300751 352.43815281357047L627.2050148300751 352.43815281357047Q627.2050148300751 358.36880932586234 612.9714392005748 360.10238584484L612.9714392005748 360.10238584484Q603.9994203742871 367.12793279017023 603.9994203742871 378.0768371205552L603.9994203742871 378.0768371205552L603.9994203742871 385.2848658047253Q608.378982106441 409.37245533157216 618.8716820897266 409.37245533157216L618.8716820897266 409.37245533157216L621.0614629558036 409.37245533157216Q627.2050148300751 409.37245533157216 639.4617049554782 397.78486491524814L639.4617049554782 397.78486491524814L640.7694907504964 397.78486491524814Q645.1490524826505 397.78486491524814 647.7950376958269 403.8980031663797L647.7950376958269 403.8980031663797Q644.723261758691 413.32622633976666 628.0870099011339 420.9904593710362L628.0870099011339 420.9904593710362Q625.0152339639982 422.29824516605436 620.4227768698645 422.29824516605436L620.4227768698645 422.29824516605436Q597.8558685000155 422.29824516605436 591.0736305398049 386.8359605848632L591.0736305398049 386.8359605848632L591.0736305398049 382.0001945056098Q591.0736305398049 356.3919238217651 612.089444129516 346.963700648378ZM699.6806787725955 336.68389602707214L699.6806787725955 336.68389602707214Q709.3217973079621 336.68389602707214 709.3217973079621 344.34812905834167L709.3217973079621 344.34812905834167L707.3449118038649 348.51479542851587L706.0371260088467 388.56953710384073Q706.0371260088467 415.7289025678234 716.9860303392317 422.29824516605436L716.9860303392317 422.29824516605436L717.411821063191 425.5829164651699Q716.7731349772519 431.93936370142114 711.5115781740392 431.93936370142114L711.5115781740392 431.93936370142114L710.2037923790209 431.93936370142114Q693.7804358834435 420.7775640090565 693.7804358834435 397.78486491524814L693.7804358834435 397.78486491524814L692.2293411033056 397.78486491524814Q683.4702176389977 422.29824516605436 671.0006321516149 422.29824516605436L671.0006321516149 422.29824516605436Q659.3826281121509 419.01357386693894 659.3826281121509 404.99289359941815L659.3826281121509 404.99289359941815Q659.3826281121509 374.1230661123607 684.1393173480768 343.4661339872828L684.1393173480768 343.4661339872828Q692.4726500884253 336.68389602707214 699.6806787725955 336.68389602707214ZM673.1904130176919 396.23377013511026L673.1904130176919 396.23377013511026L672.3084179466331 402.3773220093818L672.3084179466331 406.543988379556L674.49819881271 406.543988379556Q690.9215553082875 365.57683801003236 690.9215553082875 356.6048191837448L690.9215553082875 356.6048191837448L690.0395602372287 356.6048191837448Q677.3570793878661 370.83839481324515 673.1904130176919 396.23377013511026ZM735.1733769769266 300.5525117368019L735.1733769769266 300.5525117368019Q741.2865152280582 302.7422926028788 741.2865152280582 307.3347496970125L741.2865152280582 307.3347496970125L743.4762960941351 390.7593179699178L743.4762960941351 417.70578807192067Q743.4762960941351 425.1571257412104 737.1198488578839 425.1571257412104L737.1198488578839 425.1571257412104L734.2913819058679 425.1571257412104Q730.3376108976732 422.51114052803405 730.3376108976732 419.01357386693894L730.3376108976732 419.01357386693894L730.3376108976732 393.6181985450738L728.3607253935759 306.90895897305313Q728.3607253935759 301.43450680786066 735.1733769769266 300.5525117368019ZM781.5845658885028 346.963700648378L781.5845658885028 346.963700648378L790.5565847147905 345.65591485335983Q796.0310368799828 345.65591485335983 796.7001365890619 352.43815281357047L796.7001365890619 352.43815281357047Q796.7001365890619 358.36880932586234 782.4665609595615 360.10238584484L782.4665609595615 360.10238584484Q773.4945421332739 367.12793279017023 773.4945421332739 378.0768371205552L773.4945421332739 378.0768371205552L773.4945421332739 385.2848658047253Q777.8741038654279 409.37245533157216 788.3668038487134 409.37245533157216L788.3668038487134 409.37245533157216L790.5565847147905 409.37245533157216Q796.7001365890619 409.37245533157216 808.956826714465 397.78486491524814L808.956826714465 397.78486491524814L810.2646125094833 397.78486491524814Q814.6441742416373 397.78486491524814 817.2901594548136 403.8980031663797L817.2901594548136 403.8980031663797Q814.2183835176778 413.32622633976666 797.5821316601207 420.9904593710362L797.5821316601207 420.9904593710362Q794.510355722985 422.29824516605436 789.9178986288513 422.29824516605436L789.9178986288513 422.29824516605436Q767.3509902590023 422.29824516605436 760.5687522987917 386.8359605848632L760.5687522987917 386.8359605848632L760.5687522987917 382.0001945056098Q760.5687522987917 356.3919238217651 781.5845658885028 346.963700648378ZM836.9981872495065 355.2970333887265L836.9981872495065 355.2970333887265L840.9215446345611 353.10725252264956Q846.1831014377739 353.10725252264956 848.5857776658306 359.4636997589008L848.5857776658306 359.4636997589008Q845.0882110047353 375.6437472693585 845.0882110047353 392.73620347401504L845.0882110047353 392.73620347401504Q845.0882110047353 401.28243157634324 850.1368724459685 411.3493408356694L850.1368724459685 411.3493408356694L851.4446582409867 411.3493408356694Q857.8011054772378 411.3493408356694 866.5602289415458 361.1972762778785L866.5602289415458 361.1972762778785Q869.6015912555416 358.58170468784203 872.4604718306977 358.58170468784203L872.4604718306977 358.58170468784203Q879.2427097909083 358.58170468784203 879.2427097909083 382.6692942146889L879.2427097909083 382.6692942146889Q882.1015903660644 409.15955996959246 885.5991570271597 409.15955996959246L885.5991570271597 409.15955996959246L888.8838283262751 407.8517741745743Q895.2402755625263 410.25445040263094 895.2402755625263 414.63401213478494L895.2402755625263 414.63401213478494Q891.2865045543317 422.96734487513345 884.2913712321414 422.96734487513345L884.2913712321414 422.96734487513345Q876.4142428388923 422.96734487513345 869.1758005315821 407.1826744654952L869.1758005315821 407.1826744654952Q860.4166770672742 425.5829164651699 851.4446582409867 425.5829164651699L851.4446582409867 425.5829164651699Q838.093077682545 425.5829164651699 832.8315208793323 397.78486491524814L832.8315208793323 397.78486491524814L832.1624211702531 390.7593179699178L832.1624211702531 388.56953710384073Q832.1624211702531 371.05129017522484 836.9981872495065 355.2970333887265ZM912.3023181440428 300.5525117368019L912.3023181440428 300.5525117368019Q918.4458700183145 302.7422926028788 918.4458700183145 307.3347496970125L918.4458700183145 307.3347496970125L920.6356508843915 390.7593179699178L920.6356508843915 417.70578807192067Q920.6356508843915 425.1571257412104 914.2792036481402 425.1571257412104L914.2792036481402 425.1571257412104L911.4507366961241 425.1571257412104Q907.4969656879296 422.51114052803405 907.4969656879296 419.01357386693894L907.4969656879296 419.01357386693894L907.4969656879296 393.6181985450738L905.5200801838322 306.90895897305313Q905.5200801838322 301.43450680786066 912.3023181440428 300.5525117368019ZM977.3570580404134 336.68389602707214L977.3570580404134 336.68389602707214Q986.9981765757801 336.68389602707214 986.9981765757801 344.34812905834167L986.9981765757801 344.34812905834167L985.0212910716829 348.51479542851587L983.7135052766646 388.56953710384073Q983.7135052766646 415.7289025678234 994.6624096070495 422.29824516605436L994.6624096070495 422.29824516605436L995.0882003310089 425.5829164651699Q994.4191006219298 431.93936370142114 989.1879574418571 431.93936370142114L989.1879574418571 431.93936370142114L987.849758023699 431.93936370142114Q971.4264015281215 420.7775640090565 971.4264015281215 397.78486491524814L971.4264015281215 397.78486491524814L969.9057203711236 397.78486491524814Q961.1465969068156 422.29824516605436 948.6770114194328 422.29824516605436L948.6770114194328 422.29824516605436Q937.0590073799688 419.01357386693894 937.0590073799688 404.99289359941815L937.0590073799688 404.99289359941815Q937.0590073799688 374.1230661123607 961.8156966158948 343.4661339872828L961.8156966158948 343.4661339872828Q970.1186157331033 336.68389602707214 977.3570580404134 336.68389602707214ZM950.8667922855097 396.23377013511026L950.8667922855097 396.23377013511026L949.984797214451 402.3773220093818L949.984797214451 406.543988379556L952.1745780805281 406.543988379556Q968.5979345761054 365.57683801003236 968.5979345761054 356.6048191837448L968.5979345761054 356.6048191837448L967.7159395050467 356.6048191837448Q955.0030450325442 370.83839481324515 950.8667922855097 396.23377013511026ZM1026.1709231800464 288.29582161139876L1026.1709231800464 288.29582161139876Q1032.3144750543179 289.6036074064169 1032.3144750543179 294.4089598625303L1032.3144750543179 294.4089598625303L1031.0066892592995 304.05007839789704L1031.0066892592995 306.90895897305313Q1031.0066892592995 316.5196638852799 1033.1964701253764 327.25567285368516L1033.1964701253764 327.25567285368516L1033.6222608493363 327.25567285368516Q1059.017636171201 319.59143982241574 1065.1611880454725 319.59143982241574L1065.1611880454725 319.59143982241574Q1071.5176352817239 321.3554299645333 1071.5176352817239 325.9478870586669L1071.5176352817239 325.9478870586669Q1071.5176352817239 333.3992247279567 1056.4020645811647 333.3992247279567L1056.4020645811647 333.3992247279567L1033.6222608493363 341.4892484831855Q1033.6222608493363 371.05129017522484 1039.9787080855872 421.872454442095L1039.9787080855872 421.872454442095Q1038.6709222905693 427.77269733124683 1033.6222608493363 427.77269733124683L1033.6222608493363 427.77269733124683L1033.1964701253764 427.77269733124683Q1025.5322370941071 427.77269733124683 1025.5322370941071 408.064669536554L1025.5322370941071 408.064669536554Q1022.6733565189511 393.40530318309413 1020.6964710148537 344.34812905834167L1020.6964710148537 344.34812905834167L1016.7731136297991 344.34812905834167Q996.1830907640475 343.0403432633234 996.1830907640475 334.7070105229749L996.1830907640475 334.7070105229749Q996.1830907640475 332.30433429491814 1000.7755478581811 328.80676763382303L1000.7755478581811 328.80676763382303L1002.9653287242581 328.80676763382303L1013.0322379835843 331.42233922385935L1020.0577849289145 331.42233922385935L1018.0808994248173 304.05007839789704Q1018.0808994248173 288.29582161139876 1026.1709231800464 288.29582161139876ZM1113.1234717371867 338.6607815311694L1113.1234717371867 338.6607815311694Q1129.3339328707843 338.6607815311694 1137.636851987993 362.74837105801635L1137.636851987993 362.74837105801635L1138.5188470590515 367.34082815215004Q1138.5188470590515 390.7593179699178 1116.6210383982816 415.30311184386403L1116.6210383982816 415.30311184386403Q1107.8619149339738 423.39313559909283 1098.8898961076861 423.39313559909283L1098.8898961076861 423.39313559909283Q1085.7512109112245 423.39313559909283 1080.276758746032 408.2775648985337L1080.276758746032 408.2775648985337Q1078.2998732419346 401.28243157634324 1078.2998732419346 396.0208747731306L1078.2998732419346 396.0208747731306L1078.2998732419346 393.40530318309413Q1078.2998732419346 358.7946000498217 1103.48235320182 340.85056239724645L1103.48235320182 340.85056239724645Q1107.8619149339738 338.6607815311694 1113.1234717371867 338.6607815311694ZM1091.2256630764168 395.5950840491711L1091.2256630764168 395.5950840491711Q1091.2256630764168 410.4673457646106 1098.8898961076861 410.4673457646106L1098.8898961076861 410.4673457646106Q1114.8570482561645 410.4673457646106 1125.3801618625898 369.530609018227L1125.3801618625898 369.530609018227L1125.3801618625898 365.36394264805267Q1121.669699839515 351.7994667276314 1111.5723769570486 351.7994667276314L1111.5723769570486 351.7994667276314Q1107.6490195719944 351.7994667276314 1107.6490195719944 357.2739188928239L1107.6490195719944 357.2739188928239Q1107.6490195719944 360.9843809158988 1098.8898961076861 363.1741617819757L1098.8898961076861 363.1741617819757Q1091.2256630764168 376.09995161645793 1091.2256630764168 395.5950840491711ZM1177.0529075773788 334.9199058849546L1177.0529075773788 334.9199058849546Q1190.8606924829196 334.9199058849546 1193.476264072956 354.20214295568803L1193.476264072956 354.20214295568803L1193.476264072956 356.1790284597853Q1193.476264072956 377.4077374114761 1171.578455412186 395.1388797020718L1171.578455412186 395.1388797020718Q1184.2913498846888 407.6388788125945 1216.043172442805 407.6388788125945L1216.043172442805 407.6388788125945Q1220.8485248989186 409.15955996959246 1220.8485248989186 414.42111677280525L1220.8485248989186 414.42111677280525Q1220.8485248989186 420.3213596619571 1213.1842918676489 420.3213596619571L1213.1842918676489 420.3213596619571Q1191.7426875539786 420.3213596619571 1168.0808887510912 409.37245533157216L1168.0808887510912 409.37245533157216L1168.0808887510912 415.7289025678234Q1168.0808887510912 438.2958109376724 1158.4397702157244 438.2958109376724L1158.4397702157244 438.2958109376724Q1151.6575322555136 438.2958109376724 1151.6575322555136 412.2313359067282L1151.6575322555136 412.2313359067282L1151.6575322555136 395.1388797020718L1150.9884325464345 389.02574145094013L1152.5395273265722 382.0001945056098L1150.9884325464345 360.9843809158988L1150.9884325464345 360.10238584484Q1150.9884325464345 354.20214295568803 1157.131984420706 352.0123620896111L1157.131984420706 352.0123620896111Q1165.6782125230343 334.9199058849546 1177.0529075773788 334.9199058849546ZM1166.1040032469937 382.88218957666857L1166.1040032469937 382.88218957666857Q1172.460450483245 382.88218957666857 1180.3375788764943 360.10238584484L1180.3375788764943 360.10238584484L1180.3375788764943 350.7045762945929L1177.722007286458 347.8456957194368L1175.7451217823605 347.8456957194368Q1166.1040032469937 354.4150383176677 1166.1040032469937 382.88218957666857Z " fill="#333333" transform="matrix(0.7167146751179272,0,0,0.7167146751179274,0,39.62056547627387)"/></g></svg>